<mxfile host="app.diagrams.net" modified="2024-03-23T06:42:16.701Z" agent="Mozilla/5.0 (Windows NT 10.0; Win64; x64) AppleWebKit/537.36 (KHTML, like Gecko) Chrome/122.0.0.0 Safari/537.36 Edg/122.0.0.0" version="24.0.8" etag="LHXhD4-xDVwzCUQunaSK" type="github">
  <diagram name="Page-1" id="wsU-9MH4ZL0naBRMKoCF">
    <mxGraphModel>
      <root>
        <mxCell id="0" />
        <mxCell id="1" parent="0" />
      </root>
    </mxGraphModel>
  </diagram>
</mxfile>
